<svg xmlns="http://www.w3.org/2000/svg" width="960" height="540" viewBox="0 0 960 540" role="img" aria-labelledby="title desc">
  <title id="title">Original Felix Builder Mascot</title>
  <desc id="desc">An original cheerful repair-helper mascot holding a hammer beside an agent scaffold.</desc>
  <rect width="960" height="540" fill="#f7f4ec"/>
  <rect x="88" y="78" width="784" height="384" rx="28" fill="#ffffff" stroke="#1c2a39" stroke-width="10"/>
  <path d="M150 390h660" stroke="#d7dde3" stroke-width="10" stroke-linecap="round"/>
  <g transform="translate(210 92)">
    <rect x="122" y="158" width="142" height="150" rx="18" fill="#2f7d5a" stroke="#1c2a39" stroke-width="8"/>
    <path d="M126 178l134 0" stroke="#f4d35e" stroke-width="12" stroke-linecap="round"/>
    <circle cx="194" cy="82" r="58" fill="#f0c7a3" stroke="#1c2a39" stroke-width="8"/>
    <path d="M142 72c24-58 90-58 112 0-34-16-70-17-112 0z" fill="#7a4f2a" stroke="#1c2a39" stroke-width="8" stroke-linejoin="round"/>
    <circle cx="174" cy="82" r="7" fill="#1c2a39"/>
    <circle cx="215" cy="82" r="7" fill="#1c2a39"/>
    <path d="M176 112c14 13 32 13 47 0" fill="none" stroke="#1c2a39" stroke-width="7" stroke-linecap="round"/>
    <path d="M132 218l-62 56" stroke="#1c2a39" stroke-width="18" stroke-linecap="round"/>
    <path d="M256 216l68 58" stroke="#1c2a39" stroke-width="18" stroke-linecap="round"/>
    <path d="M92 258l-46 36" stroke="#f0c7a3" stroke-width="20" stroke-linecap="round"/>
    <path d="M328 270l80-78" stroke="#6c757d" stroke-width="12" stroke-linecap="round"/>
    <rect x="392" y="160" width="26" height="82" rx="7" transform="rotate(44 405 201)" fill="#f4d35e" stroke="#1c2a39" stroke-width="6"/>
    <path d="M178 308v70" stroke="#1c2a39" stroke-width="18" stroke-linecap="round"/>
    <path d="M224 308v70" stroke="#1c2a39" stroke-width="18" stroke-linecap="round"/>
    <path d="M146 382h54" stroke="#1c2a39" stroke-width="16" stroke-linecap="round"/>
    <path d="M206 382h54" stroke="#1c2a39" stroke-width="16" stroke-linecap="round"/>
  </g>
  <g transform="translate(540 138)" stroke="#1c2a39" stroke-width="7" stroke-linejoin="round">
    <rect x="0" y="0" width="220" height="78" rx="12" fill="#e6f0ff"/>
    <rect x="0" y="112" width="220" height="78" rx="12" fill="#e9f7ef"/>
    <rect x="0" y="224" width="220" height="78" rx="12" fill="#fff1d6"/>
    <path d="M110 78v34M110 190v34" fill="none"/>
    <circle cx="34" cy="39" r="13" fill="#5c7cfa"/>
    <circle cx="34" cy="151" r="13" fill="#2f9e44"/>
    <circle cx="34" cy="263" r="13" fill="#f08c00"/>
    <path d="M64 39h118M64 151h118M64 263h118" stroke-linecap="round"/>
  </g>
  <text x="480" y="495" text-anchor="middle" font-family="Arial, sans-serif" font-size="34" font-weight="700" fill="#1c2a39">Felix builds the builders</text>
</svg>

